sfk_cyclingleg_states
version=1
nRows=4
nColumns=53
inDegrees=yes

# SIMM Motion File Header:
name sfk_cyclingleg_states
datacolumns 53
datarows 4
otherdata 1
range 0.44611400 0.44749632
endheader
time	/jointset/bb/crank_angle/value	/jointset/bb/crank_angle/speed	/jointset/spindle/pedal_angle_r/value	/jointset/spindle/pedal_angle_r/speed	/jointset/ground_pelvis/pelvis_tilt/value	/jointset/ground_pelvis/pelvis_tilt/speed	/jointset/ground_pelvis/pelvis_list/value	/jointset/ground_pelvis/pelvis_list/speed	/jointset/ground_pelvis/pelvis_rotation/value	/jointset/ground_pelvis/pelvis_rotation/speed	/jointset/ground_pelvis/pelvis_tx/value	/jointset/ground_pelvis/pelvis_tx/speed	/jointset/ground_pelvis/pelvis_ty/value	/jointset/ground_pelvis/pelvis_ty/speed	/jointset/ground_pelvis/pelvis_tz/value	/jointset/ground_pelvis/pelvis_tz/speed	/jointset/hip_r/hip_angle_r/value	/jointset/hip_r/hip_angle_r/speed	/jointset/hip_r/hip_adduction_r/value	/jointset/hip_r/hip_adduction_r/speed	/jointset/hip_r/hip_rotation_r/value	/jointset/hip_r/hip_rotation_r/speed	/jointset/knee_r/knee_angle_r/value	/jointset/knee_r/knee_angle_r/speed	/jointset/knee_r/tib_tx_r/value	/jointset/knee_r/tib_tx_r/speed	/jointset/knee_r/tib_ty_r/value	/jointset/knee_r/tib_ty_r/speed	/jointset/tib_pat_r/pat_angle_r/value	/jointset/tib_pat_r/pat_angle_r/speed	/jointset/tib_pat_r/pat_tx_r/value	/jointset/tib_pat_r/pat_tx_r/speed	/jointset/tib_pat_r/pat_ty_r/value	/jointset/tib_pat_r/pat_ty_r/speed	/jointset/ankle_r/ankle_angle_r/value	/jointset/ankle_r/ankle_angle_r/speed	/jointset/subtalar_r/subtalar_angle_r/value	/jointset/subtalar_r/subtalar_angle_r/speed	/jointset/mtp_r/mtp_angle_r/value	/jointset/mtp_r/mtp_angle_r/speed	/forceset/bifemlh_r/activation	/forceset/bifemlh_r/fiber_length	/forceset/bifemsh_r/activation	/forceset/bifemsh_r/fiber_length	/forceset/glut_max2_r/activation	/forceset/glut_max2_r/fiber_length	/forceset/vas_int_r/activation	/forceset/vas_int_r/fiber_length	/forceset/med_gas_r/activation	/forceset/med_gas_r/fiber_length	/forceset/tib_ant_r/activation	/forceset/tib_ant_r/fiber_length
      0.44611400	   -224.33144219	   -480.13863232	    212.52164829	    284.15662077	      0.00000000	      0.00000000	     -0.00000000	     -0.00000000	     -0.00000000	     -0.00000000	     -0.00000000	     -0.00000000	     -0.00000000	     -0.00000000	     -0.00000000	     -0.00000000	     38.32518336	     96.10675467	      4.37332625	     -0.65203106	     -0.14101531	    -22.28749490	    -71.33921780	   -291.55844213	      0.00514541	     -0.00243659	     -0.47957737	     -0.09620181	     17.52705240	      1.33782031	      0.03931100	     -0.09411050	     -0.02256233	      0.00665800	     21.65120899	      0.32622052	     -0.00000000	     -0.00000000	      0.00000000	      0.00000000	     -0.03199508	      0.10874600	     -0.03199508	      0.16026679	     -0.03199508	      0.12873143	     -0.03199508	      0.13697122	      0.05000000	      0.10000000	      0.05000000	      0.10000000
      0.44655067	   -224.54110511	   -480.13863232	    212.64581324	    284.53162802	      0.00000000	      0.00000000	     -0.00000000	     -0.00000000	     -0.00000000	     -0.00000000	     -0.00000000	     -0.00000000	     -0.00000000	     -0.00000000	     -0.00000000	     -0.00000000	     38.36719726	     96.32108849	      4.37303977	     -0.66008970	     -0.15074666	    -22.28308119	    -71.46654243	   -291.60080345	      0.00514429	     -0.00268355	     -0.47961939	     -0.09627736	     17.52762983	      1.30695276	      0.03926988	     -0.09422349	     -0.02255944	      0.00657103	     21.65139659	      0.53298553	     -0.00000000	     -0.00000000	      0.00000000	      0.00000000	     -0.03205130	      0.10872764	     -0.03205130	      0.16020151	     -0.03205130	      0.12876371	     -0.03205130	      0.13713005	      0.05000000	      0.10000000	      0.05000000	      0.10000000
      0.44698734	   -224.75076802	   -480.13863232	    212.77014232	    284.90836025	      0.00000000	      0.00000000	     -0.00000000	     -0.00000000	     -0.00000000	     -0.00000000	     -0.00000000	     -0.00000000	     -0.00000000	     -0.00000000	     -0.00000000	     -0.00000000	     38.40930468	     96.53507389	      4.37274977	     -0.66814600	     -0.16047609	    -22.27866940	    -71.59388508	   -291.64096277	      0.00514306	     -0.00293057	     -0.47966145	     -0.09635182	     17.52819388	      1.27652679	      0.03922871	     -0.09433609	     -0.02255659	      0.00648302	     21.65167445	      0.73961741	     -0.00000000	     -0.00000000	      0.00000000	      0.00000000	     -0.03210752	      0.10870948	     -0.03210752	      0.16013630	     -0.03210752	      0.12879606	     -0.03210752	      0.13715410	      0.05000000	      0.10000000	      0.05000000	      0.10000000
      0.44749632	   -224.99515141	   -480.13863232	    212.91526862	    285.34965198	      0.00000000	      0.00000000	     -0.00000000	     -0.00000000	     -0.00000000	     -0.00000000	     -0.00000000	     -0.00000000	     -0.00000000	     -0.00000000	     -0.00000000	     -0.00000000	     38.45850298	     96.78406405	      4.37240730	     -0.67753315	     -0.17181429	    -22.27353011	    -71.74233730	   -291.68500529	      0.00514150	     -0.00321858	     -0.47971051	     -0.09643724	     17.52883470	      1.24162132	      0.03918066	     -0.09446685	     -0.02255332	      0.00637914	     21.65211216	      0.98029847	     -0.00000000	     -0.00000000	      0.00000000	      0.00000000	     -0.03217305	      0.10868858	     -0.03217305	      0.16006039	     -0.03217305	      0.12883384	     -0.03217305	      0.13725236	      0.05000000	      0.10000000	      0.05000000	      0.10000000
